<svg xmlns="http://www.w3.org/2000/svg" viewBox="0 0 1629 1560" fill="none">
  <g transform="translate(0,1560) scale(0.1,-0.1)" fill="#3D2668" stroke="none">
  <path d="M7930 15282 c-113 -64 -243 -140 -290 -168 -47 -28 -134 -79 -195
-114 -60 -35 -168 -97 -240 -138 -71 -42 -182 -105 -245 -142 -63 -37 -209
-122 -325 -189 -115 -68 -268 -157 -340 -199 -71 -41 -177 -103 -235 -137 -58
-35 -127 -75 -155 -90 -27 -15 -102 -58 -165 -95 -220 -130 -481 -280 -486
-280 -3 0 -24 -13 -47 -28 -23 -16 -150 -91 -282 -167 -132 -76 -262 -151
-290 -168 -27 -17 -122 -72 -210 -122 -88 -51 -212 -123 -275 -160 -229 -135
-706 -413 -755 -440 -27 -15 -108 -62 -180 -105 -258 -153 -424 -250 -645
-377 -124 -71 -362 -210 -530 -308 -168 -98 -335 -195 -373 -217 l-67 -39 0
-1768 0 -1768 -22 -19 c-21 -19 -110 -83 -368 -264 -159 -112 -518 -368 -575
-410 -27 -20 -97 -70 -155 -111 -153 -108 -279 -203 -280 -211 0 -15 545 -436
700 -539 59 -39 236 -135 402 -217 l297 -147 1 -1056 0 -1056 53 -28 c50 -28
219 -127 417 -245 52 -31 151 -90 220 -130 69 -40 177 -103 240 -140 63 -37
149 -87 190 -110 41 -24 130 -76 198 -116 67 -41 124 -74 126 -74 2 0 43 -24
92 -54 49 -29 132 -78 184 -108 52 -30 196 -115 320 -188 124 -73 239 -141
255 -150 17 -10 136 -79 265 -155 129 -75 289 -169 355 -207 66 -39 185 -109
265 -157 79 -47 156 -92 170 -99 14 -7 77 -44 140 -81 281 -167 462 -273 635
-374 154 -89 161 -93 600 -352 204 -120 422 -248 485 -285 268 -155 826 -483
835 -490 9 -7 106 -64 403 -237 l93 -54 117 67 c64 37 198 115 297 174 99 58
286 168 415 244 129 76 285 167 345 203 61 36 175 104 255 151 80 46 219 129
310 182 91 54 219 129 285 167 66 39 275 161 465 273 338 199 542 318 628 367
24 13 122 71 218 129 96 57 176 104 178 104 2 0 77 43 167 97 90 53 198 116
239 140 41 24 146 85 233 136 86 50 253 148 370 217 116 68 235 138 262 156
28 17 82 48 120 69 39 21 77 43 85 50 8 7 76 47 150 90 168 96 348 202 463
272 49 29 90 53 92 53 2 0 109 62 237 138 128 76 317 187 420 247 l188 109 2
1475 3 1475 200 61 c110 33 206 63 214 66 10 4 14 38 15 152 l1 148 483 481
c265 265 482 485 482 490 0 4 -288 8 -641 8 -605 0 -640 1 -635 18 15 53 232
751 313 1007 99 314 113 356 188 600 65 210 150 478 195 620 89 277 116 366
111 370 -2 3 -213 5 -468 5 l-463 0 0 293 0 294 -212 123 c-117 68 -301 175
-408 238 -107 62 -238 139 -290 169 -52 31 -147 86 -210 123 -167 99 -347 203
-875 510 -258 150 -609 355 -780 455 -170 100 -375 219 -455 265 -80 46 -203
118 -275 160 -71 43 -184 108 -250 145 -114 65 -511 295 -895 520 -220 129
-709 413 -1035 602 -137 80 -290 169 -340 198 -49 29 -151 88 -225 130 -74 43
-168 97 -207 121 -40 24 -76 44 -80 44 -5 0 -100 -53 -213 -118z m510 -1227
c140 -82 374 -218 520 -303 146 -86 333 -195 415 -242 83 -48 353 -206 600
-350 248 -145 533 -311 635 -370 102 -59 230 -134 285 -167 55 -33 192 -113
305 -178 113 -65 264 -153 335 -195 72 -42 207 -121 300 -175 94 -54 190 -110
215 -125 25 -15 194 -114 375 -220 182 -106 346 -203 366 -216 20 -12 106 -63
190 -112 282 -163 573 -333 627 -365 l52 -31 0 -234 0 -234 -68 -72 c-72 -74
-261 -284 -472 -521 -68 -77 -150 -167 -182 -200 l-58 -60 0 385 c0 212 -4
390 -8 396 -4 6 -34 25 -67 44 -33 18 -159 92 -280 163 -121 72 -251 148 -290
171 -193 111 -405 237 -409 244 -2 4 34 66 80 137 97 148 264 414 264 421 0 2
-296 4 -657 4 -532 0 -663 3 -683 14 -14 7 -106 60 -205 118 -99 58 -448 262
-775 453 -327 191 -635 371 -685 400 -49 29 -171 100 -270 157 -99 58 -256
150 -350 205 -93 55 -223 130 -287 167 l-118 68 -117 -68 c-65 -36 -203 -117
-308 -179 -104 -61 -212 -124 -240 -140 -27 -15 -104 -59 -170 -98 -283 -167
-347 -204 -680 -397 -192 -112 -465 -271 -605 -353 -140 -83 -313 -184 -385
-225 -71 -41 -287 -167 -480 -280 -192 -112 -363 -212 -380 -222 -16 -9 -217
-127 -445 -260 -228 -134 -530 -310 -670 -391 l-255 -147 -3 -830 -2 -830 -43
-10 c-35 -8 -657 -173 -710 -188 -16 -5 -17 55 -15 1197 l3 1203 200 118 c110
64 238 139 285 166 47 28 148 87 225 132 77 46 181 106 230 135 50 28 178 103
285 167 107 63 240 141 295 173 55 32 174 101 265 155 91 53 224 131 295 172
72 42 207 120 300 175 94 55 256 149 360 210 105 61 296 172 425 248 129 75
276 161 325 190 321 187 396 231 535 312 85 50 225 131 310 181 85 49 331 193
545 318 637 372 626 366 649 350 12 -7 136 -80 276 -161z m3013 -2842 c-55
-86 -203 -317 -317 -495 -56 -86 -132 -205 -171 -265 -249 -387 -446 -695
-469 -736 l-28 -47 -463 0 -464 0 -78 -97 c-43 -53 -94 -115 -113 -138 -19
-23 -114 -140 -210 -259 -96 -120 -249 -309 -339 -420 -136 -167 -481 -597
-571 -712 -14 -17 -111 -137 -216 -265 -105 -129 -228 -281 -273 -339 -46 -58
-89 -108 -97 -113 -7 -4 -486 -6 -1066 -5 l-1053 3 75 60 c41 33 118 96 170
141 52 44 153 127 224 185 254 205 293 236 406 329 64 52 136 111 160 130 24
19 85 69 134 110 50 42 152 125 226 185 170 138 216 175 595 485 171 140 335
274 366 300 30 25 102 83 159 130 56 47 144 119 195 160 51 41 278 228 506
414 228 186 434 355 458 375 24 20 74 61 111 91 37 30 155 126 261 213 298
243 478 391 632 520 l141 117 573 0 574 0 -38 -57z m3635 -641 c-44 -138 -186
-586 -250 -787 -38 -121 -139 -440 -225 -710 -85 -269 -169 -535 -187 -590
l-32 -100 -74 -6 c-128 -11 -521 -10 -600 2 -99 14 -768 100 -1087 141 -139
17 -253 34 -253 38 0 6 131 152 389 436 25 27 123 135 216 239 94 103 287 317
430 474 143 157 318 351 390 431 232 259 299 333 377 415 l77 80 424 -3 423
-2 -18 -58z m-4875 -1289 c-4 -10 -83 -136 -177 -280 -165 -254 -435 -671
-486 -753 -23 -38 -108 -171 -436 -680 -72 -113 -136 -215 -143 -227 l-11 -22
-405 -1 c-223 0 -405 3 -405 6 0 4 24 37 53 73 30 36 146 183 259 326 113 143
243 307 289 365 46 59 96 122 111 140 81 104 453 572 536 675 53 66 146 182
206 257 l108 138 254 0 c237 0 253 -1 247 -17z m-3948 -878 c-16 -14 -75 -60
-130 -104 -145 -115 -648 -525 -944 -769 -42 -34 -114 -93 -160 -130 -46 -37
-181 -147 -299 -245 -119 -99 -222 -181 -229 -184 -7 -3 -13 -9 -13 -14 0 -5
973 -9 2340 -9 l2339 0 12 23 c7 12 31 51 54 87 66 103 384 604 553 870 61 96
122 192 136 212 l26 38 949 0 949 0 63 29 c111 50 42 54 814 -49 165 -22 306
-40 314 -40 8 0 12 -2 10 -4 -7 -7 -1075 -276 -1097 -276 -12 0 -23 -4 -26 -9
-6 -9 31 -40 413 -348 l226 -182 940 -3 940 -3 -75 -21 c-113 -33 -723 -220
-1715 -527 -644 -199 -1118 -345 -1244 -382 l-83 -25 -4593 0 -4593 0 -238 99
c-279 116 -291 121 -535 238 -102 50 -207 105 -235 124 -121 84 -304 227 -304
238 0 9 71 60 453 325 l297 206 654 0 654 0 205 218 205 217 -541 5 -542 5 75
51 c41 28 95 61 118 73 41 21 245 82 552 166 74 20 160 44 190 52 30 8 102 28
160 43 l105 28 1440 1 1440 0 -30 -24z m8755 -570 l-185 -185 -1079 2 c-775 2
-1080 6 -1083 14 -2 7 141 47 379 107 383 97 842 215 908 235 22 6 254 11 640
11 l605 1 -185 -185z m-1367 -2197 l-2 -1023 -58 -36 c-32 -20 -119 -71 -193
-114 -74 -43 -205 -120 -290 -170 -85 -50 -213 -125 -285 -167 -239 -139 -739
-434 -782 -461 -24 -15 -45 -27 -48 -27 -4 0 -43 -22 -88 -49 -151 -90 -501
-297 -612 -361 -60 -35 -149 -87 -197 -117 -48 -29 -90 -53 -93 -53 -2 0 -60
-33 -127 -73 -68 -41 -190 -113 -273 -161 -82 -48 -157 -91 -165 -96 -8 -5
-55 -32 -105 -61 -49 -29 -148 -87 -220 -129 -202 -120 -389 -230 -520 -307
-66 -38 -199 -116 -295 -173 -96 -56 -233 -136 -305 -178 -228 -133 -516 -303
-640 -377 -66 -39 -141 -84 -168 -99 l-47 -27 -158 94 c-86 52 -305 181 -487
287 -181 106 -418 244 -525 308 -107 63 -260 153 -340 200 -80 46 -176 104
-215 127 -38 24 -86 52 -105 63 -19 11 -114 66 -210 122 -96 57 -188 111 -205
120 -16 9 -97 57 -180 105 -82 49 -193 113 -245 143 -52 30 -171 100 -265 155
-93 55 -222 130 -285 167 -63 37 -194 113 -290 170 -96 56 -206 121 -245 143
-38 22 -121 71 -183 109 -63 37 -115 68 -117 68 -2 0 -40 23 -85 50 -45 28
-83 50 -85 50 -1 0 -33 18 -70 41 -37 22 -82 49 -99 59 -27 15 -152 88 -336
195 -30 17 -93 54 -140 82 -47 27 -168 98 -270 157 -102 60 -227 133 -278 163
l-92 56 0 673 0 674 385 0 385 0 0 -443 c0 -410 1 -445 18 -459 18 -16 112
-73 262 -160 74 -43 350 -205 440 -259 8 -5 40 -23 70 -40 89 -51 439 -257
655 -384 110 -65 281 -165 380 -222 99 -58 212 -124 250 -147 66 -40 173 -103
425 -251 58 -34 159 -94 225 -132 66 -39 208 -123 315 -185 107 -63 263 -154
345 -203 180 -105 610 -360 715 -422 41 -25 95 -57 120 -71 25 -14 133 -77
240 -140 107 -64 215 -126 240 -140 l46 -24 89 54 c93 57 277 165 540 318 83
48 202 118 265 155 63 37 124 73 135 79 11 6 70 41 130 77 61 36 178 105 260
154 254 148 424 248 568 334 76 45 198 116 270 158 73 42 175 101 227 133 52
31 185 110 295 175 110 65 243 143 295 174 52 31 107 63 123 71 38 21 361 210
477 280 111 67 533 314 770 452 91 53 192 113 225 132 l60 37 5 682 5 682 70
22 c39 12 153 47 255 78 102 31 241 74 310 95 69 22 127 39 130 40 3 0 4 -460
3 -1022z m-4584 270 c27 -29 100 -112 162 -184 133 -153 508 -574 525 -589 11
-10 228 -255 372 -421 l74 -84 -457 0 -457 0 -187 101 c-285 155 -443 241
-476 259 -16 9 -100 54 -185 100 -85 45 -193 104 -240 130 -47 27 -229 126
-405 220 -176 95 -340 184 -365 197 -52 29 -265 144 -390 210 -122 65 -190
104 -190 109 0 2 488 4 1086 4 l1085 0 48 -52z"/>
</g>
</svg>